PathFileType	4	(X/Y/Z)	Walk2.trc
DataRate	CameraRate	NumFrames	NumMarkers	Units	OrigDataRate	OrigDataStartFrame	OrigNumFrames
200.000000	200.000000	4	61	mm	200.000000	373	591
Frame#	Times		LFHD		RFHD		CLAV		STRN		LASI		RASI		RACR1		RUA1		RElbow		RFA1		RWRR		RWRU		RCAR		LACR1		LUA1		LElbow		LFA1		LWRR		RTH3		RTH2		RTB1		RTB3		RTB2		RTB4		LTH1		LTH3		LLFC		LMFC		LTB1		LTB2		LMT1		LWRU		LCAR		LTB3		RMFC		LTB4		RMMAL		LTH4		LTH2		RToe		RElbowM		RMT1		RLFC		RTH4		RTH1		LBHD		RCAL		RLMAL		LToe		RBack		RMT5		LMT5		RPSI		LLMAL		C7		LPSI		LMMAL		T10		LCAL		RBHD		LElbowM
			X1	Y1	Z1	X2	Y2	Z2	X3	Y3	Z3	X4	Y4	Z4	X5	Y5	Z5	X6	Y6	Z6	X7	Y7	Z7	X8	Y8	Z8	X9	Y9	Z9	X10	Y10	Z10	X11	Y11	Z11	X12	Y12	Z12	X13	Y13	Z13	X14	Y14	Z14	X15	Y15	Z15	X16	Y16	Z16	X17	Y17	Z17	X18	Y18	Z18	X19	Y19	Z19	X20	Y20	Z20	X21	Y21	Z21	X22	Y22	Z22	X23	Y23	Z23	X24	Y24	Z24	X25	Y25	Z25	X26	Y26	Z26	X27	Y27	Z27	X28	Y28	Z28	X29	Y29	Z29	X30	Y30	Z30	X31	Y31	Z31	X32	Y32	Z32	X33	Y33	Z33	X34	Y34	Z34	X35	Y35	Z35	X36	Y36	Z36	X37	Y37	Z37	X38	Y38	Z38	X39	Y39	Z39	X40	Y40	Z40	X41	Y41	Z41	X42	Y42	Z42	X43	Y43	Z43	X44	Y44	Z44	X45	Y45	Z45	X46	Y46	Z46	X47	Y47	Z47	X48	Y48	Z48	X49	Y49	Z49	X50	Y50	Z50	X51	Y51	Z51	X52	Y52	Z52	X53	Y53	Z53	X54	Y54	Z54	X55	Y55	Z55	X56	Y56	Z56	X57	Y57	Z57	X58	Y58	Z58	X59	Y59	Z59	X60	Y60	Z60	X61	Y61	Z61

373	1.865	174.35	1627.2	-69.549	171.17	1631.4	29.573	181.73	1368.2	-7.7592	250.65	1211.3	-14.762	112.66	959.88	-205.5	167.73	941.29	158.31	60.633	1445.6	162.31	9.5129	1281.6	273.89	-5.2103	1131.7	321.37	-0.084222	976.47	338.79	5.9076	854.39	272.38	-7.8251	862.09	352.91	11.426	771.87	323.56	63.743	1431.4	-190.61	56.833	1263.6	-287.57	83.673	1109.1	-353.31	164.12	997.46	-366.79	266.67	915.06	-308.95	224.6	613.34	172.71	226.19	718.54	166.91	344.15	402.05	94.679	358.56	230.01	83.149	333.49	311.54	147.6	351.54	315.76	88.842	0.041	730.64	-232.68	-28.689	562.56	-217.92	-69.885	484.67	-215.8	-43.397	461.93	-61.22	-74.487	339.39	-153.69	-157.02	288.15	-189.23	-246.65	34.252	-97.78	235.17	877.87	-365.35	320.69	850.15	-344.04	-191.3	218.37	-119	241.57	500.42	14.925	-128.67	277.73	-134.66	342.62	88.433	28.083	-14.465	647.72	-225.42	42.486	638.85	-210.97	513.65	62.879	96.581	-58.462	1068.7	220.63	476.34	46.596	63.556	256.46	505.4	168.65	180.1	685.99	184.82	133.32	758.35	195.72	27.361	1543.9	-82.694	255.01	41.74	63.348	306.99	73.885	111.57	-199.34	23.977	-136.02	-81.548	1327.7	97.865	425.98	29.83	149.55	-311.44	35.934	-170.58	-113.13	991.74	36.266	-360.08	146.99	-119.61	-14.137	1445.7	-10.496	-115.01	1007.8	-47.923	-331.59	142.29	-33.775	-73.979	1131	-5.7647	-415.76	151.77	-62.249	37.261	1555.6	65.023	62.793	1028.3	-258.35
374	1.87	180.99	1627.5	-67.856	177.94	1631.6	31.28	188.73	1368.5	-6.2182	257.73	1211.6	-13.446	120.15	960.18	-203.64	175.09	942.01	159.14	67.819	1445.5	164.06	16.999	1281.2	275.35	2.4512	1131.2	322.52	7.6409	975.92	339.74	13.548	853.91	273.17	-0.035437	861.54	353.72	19.254	771.38	324.3	70.574	1431.8	-188.92	62.601	1264	-285.95	88.334	1109.4	-351.7	168.21	997.39	-365.35	270.56	914.5	-307.83	231.88	614.03	173.91	233.27	719.24	167.98	350.1	401.42	95.293	362.09	229.21	83.369	338.3	310.95	148.05	356.3	315.04	89.254	7.8179	730.75	-232.22	-20.255	562.48	-218.39	-61.34	484.75	-216.69	-34.643	461.36	-62.024	-67.394	339.58	-154.87	-150.78	289.69	-190.25	-246.2	34.119	-97.372	238.72	877.44	-364.12	324.2	849.4	-343.11	-185.77	220.15	-120.11	249.44	501.73	15.598	-122.49	278.65	-135.79	343.88	87.977	28.055	-6.3178	647.73	-225.48	50.603	639	-210.88	515.08	59.622	96.068	-50.734	1068.3	221.76	477.26	43.981	63.197	263.57	505.56	169.69	187.26	686.62	185.92	140.38	758.94	196.73	34.093	1544	-80.851	255.71	42.418	63.521	308.31	73.803	111.63	-199.86	23.836	-135.88	-74.447	1327.7	99.56	426.46	28.783	149.91	-310.2	37.615	-170.32	-106.1	991.82	37.287	-355.55	151.19	-120.3	-7.1098	1446	-8.6366	-107.98	1007.7	-47.213	-326.82	145.92	-34.689	-67.062	1131.2	-4.7574	-410.45	157.52	-62.793	44.201	1555.7	66.922	68.598	1028.8	-256.12
375	1.875	187.62	1627.9	-66.18	184.7	1631.9	32.972	195.7	1368.8	-4.7053	264.73	1212	-12.158	127.64	960.55	-201.76	182.39	942.83	160.05	75	1445.5	165.77	24.501	1280.9	276.8	10.14	1130.8	323.66	15.431	975.49	340.69	21.29	853.56	273.97	7.8496	861.11	354.53	27.207	771.01	325.04	77.391	1432.3	-187.25	68.381	1264.5	-284.34	92.959	1109.7	-350.07	172.21	997.37	-363.92	274.31	913.94	-306.72	238.94	614.62	175.07	240.26	719.82	169.07	355.87	400.78	95.822	365.45	228.43	83.47	342.95	310.33	148.41	360.87	314.32	89.566	15.757	730.92	-231.78	-11.551	562.44	-218.93	-52.474	484.86	-217.68	-25.53	460.79	-62.907	-59.947	339.84	-156.14	-144.18	291.31	-191.33	-245.6	34.052	-96.951	242.14	877.03	-362.9	327.53	848.63	-342.19	-179.85	222	-121.28	257.3	502.95	16.159	-115.93	279.65	-137.01	345.01	87.553	27.941	2.0472	647.79	-225.59	58.929	639.24	-210.82	516.35	56.659	95.464	-42.971	1068	222.88	478.05	41.597	62.759	270.48	505.61	170.66	194.28	687.19	187	147.37	759.51	197.76	40.803	1544.2	-79.021	256.35	43.039	63.647	309.56	73.749	111.61	-200.28	23.657	-135.75	-67.368	1327.9	101.24	426.88	28.018	150.2	-308.7	39.48	-170.06	-99.104	991.93	38.292	-350.58	155.49	-121.01	-0.10868	1446.3	-6.8129	-100.97	1007.5	-46.511	-321.6	149.61	-35.646	-60.173	1131.4	-3.7303	-404.64	163.39	-63.334	51.132	1555.8	68.812	74.025	1029.4	-253.99
376	1.88	194.24	1628.3	-64.524	191.45	1632.2	34.644	202.64	1369.1	-3.2229	271.67	1212.4	-10.902	135.1	961	-199.88	189.62	943.73	161.03	82.174	1445.6	167.44	32.018	1280.6	278.24	17.855	1130.5	324.78	23.284	975.19	341.63	29.137	853.34	274.77	15.827	860.8	355.34	35.282	770.77	325.79	84.182	1432.9	-185.58	74.17	1265.1	-282.74	97.554	1110.2	-348.43	176.14	997.41	-362.49	277.94	913.39	-305.61	245.75	615.06	176.17	247.12	720.27	170.19	361.42	400.11	96.245	368.64	227.66	83.443	347.43	309.68	148.66	365.25	313.59	89.763	23.848	731.14	-231.36	-2.5904	562.44	-219.53	-43.301	485	-218.73	-16.064	460.25	-63.854	-52.148	340.17	-157.49	-137.21	293	-192.47	-244.8	34.077	-96.531	245.41	876.64	-361.69	330.71	847.83	-341.26	-173.53	223.91	-122.5	265.08	504.04	16.618	-108.98	280.72	-138.31	346.01	87.146	27.742	10.617	647.91	-225.75	67.452	639.55	-210.78	517.49	53.973	94.783	-35.181	1067.8	223.99	478.73	39.43	62.252	277.17	505.57	171.55	201.12	687.65	188.05	154.27	760.03	198.79	47.49	1544.5	-77.207	256.92	43.605	63.721	310.72	73.72	111.53	-200.57	23.439	-135.67	-60.312	1328.1	102.92	427.26	27.501	150.4	-306.89	41.536	-169.81	-92.154	992.09	39.289	-345.17	159.85	-121.72	6.855	1446.7	-5.0243	-93.984	1007.4	-45.801	-315.92	153.35	-36.632	-53.314	1131.7	-2.6766	-398.33	169.33	-63.867	58.051	1556	70.689	79.029	1030.1	-251.97
